<?xml version="1.0" standalone="no"?>
<!DOCTYPE svg PUBLIC "-//W3C//DTD SVG 1.1//EN" "http://www.w3.org/Graphics/SVG/1.1/DTD/svg11.dtd" >
<!--
2013-9-30: Created.
-->
<svg>
<metadata>
Created by iconfont
</metadata>
<defs>

<font id="iconfont" horiz-adv-x="1024" >
  <font-face
    font-family="iconfont"
    font-weight="500"
    font-stretch="normal"
    units-per-em="1024"
    ascent="896"
    descent="-128"
  />
    <missing-glyph />
    
    <glyph glyph-name="x" unicode="x" horiz-adv-x="1001"
d="M281 543q-27 -1 -53 -1h-83q-18 0 -36.5 -6t-32.5 -18.5t-23 -32t-9 -45.5v-76h912v41q0 16 -0.5 30t-0.5 18q0 13 -5 29t-17 29.5t-31.5 22.5t-49.5 9h-133v-97h-438v97zM955 310v-52q0 -23 0.5 -52t0.5 -58t-10.5 -47.5t-26 -30t-33 -16t-31.5 -4.5q-14 -1 -29.5 -0.5
t-29.5 0.5h-32l-45 128h-439l-44 -128h-29h-34q-20 0 -45 1q-25 0 -41 9.5t-25.5 23t-13.5 29.5t-4 30v167h911zM163 247q-12 0 -21 -8.5t-9 -21.5t9 -21.5t21 -8.5q13 0 22 8.5t9 21.5t-9 21.5t-22 8.5zM316 123q-8 -26 -14 -48q-5 -19 -10.5 -37t-7.5 -25t-3 -15t1 -14.5
t9.5 -10.5t21.5 -4h37h67h81h80h64h36q23 0 34 12t2 38q-5 13 -9.5 30.5t-9.5 34.5q-5 19 -11 39h-368zM336 498v228q0 11 2.5 23t10 21.5t20.5 15.5t34 6h188q31 0 51.5 -14.5t20.5 -52.5v-227h-327z" />
    

    
    <glyph glyph-name="aixin" unicode="&#59091;" d="M797.480428 273.900575c-56.844659 61.842487-100.67798 112.868627-156.011216 171.612543-41.37534-45.454238-99.235119-107.472733-184.984085-111.435998C378.68111 330.480198 315.491952 365.568345 278.189372 414.311489c68.441788 73.454966 140.138714 143.649678 209.500455 216.185714-58.963926 45.5228-119.348202 101.525278-227.329519 91.37715-54.104245-5.083785-111.340831-32.085766-142.638651-69.089541C11.976264 527.756237 85.735152 345.520753 184.581414 271.672838c37.4571 23.429619 83.392292 100.770078 142.637628 80.233346 26.547633-9.200546 50.169633-36.347836 49.03274-73.548086 50.760081 8.408507 82.029248-21.971407 80.233346-73.547063 51.66366 7.640004 82.810031-24.026206 82.46313-75.776847 61.764716 5.432733 86.872556-50.54007 64.632019-102.521978 19.577894-36.918841 90.5012-32.654724 84.691891 13.372565-1.588171 12.595876-24.816199 31.580253-35.659151 44.574195-26.89965 32.237215-50.947346 57.95597-75.776847 86.919628-12.346189 14.404058-32.174793 32.032554-26.745131 51.261501 23.168676 7.834432 35.917024-19.028379 49.030693-33.431414 13.469779-14.790868 28.078499-29.116131 42.346457-44.574195 17.869996-19.363 58.667168-86.451978 100.293217-75.776847 13.485129 3.457752 26.75741 27.377534 24.515347 42.345434-1.641383 10.960633-25.478278 32.903388-35.659151 44.574195-27.358091 31.361265-48.608068 53.038984-75.776847 84.692914-12.065803 14.055111-48.916083 50.54007-22.286586 57.945737 19.796882 5.507434 75.040067-63.203484 84.690868-73.547063 28.114314-30.137391 50.89311-71.624271 80.234369-80.233346 41.187051-12.08627 65.22656 30.891568 51.260477 71.317279C842.355475 234.441888 813.042869 256.969974 797.480428 273.900575zM324.991304 418.767987c29.692253-32.624025 76.358085-53.111638 131.494846-49.031716 86.126566 6.375198 140.274814 81.729419 184.984085 127.037325 67.026556-74.123184 130.237203-152.068418 200.585411-222.87302 51.885717 58.800197 117.26475 121.717156 115.894543 227.330542-1.521656 117.206422-101.985766 208.02894-209.500455 216.185714C592.949148 729.215552 511.812223 610.046429 438.656063 536.891292 398.537344 496.772572 359.503329 458.149926 324.991304 418.767987zM280.417109 213.726078c22.26305 22.26305 68.223824 47.728024 62.403259 86.920652-3.137457 21.134343-26.542516 35.512818-55.716976 26.744107-19.47761-17.203824-124.654045-103.818507-127.038348-135.952368-1.836835-24.781406 16.83134-39.145555 35.660174-40.11565C230.36925 149.535103 257.187035 190.496004 280.417109 213.726078zM362.879216 133.492732c26.63359 26.632567 61.654198 51.155077 60.176544 80.233346-1.355881 26.672476-24.562419 39.096437-51.261501 33.43039-22.632463-4.800329-53.020564-41.075511-75.775824-64.632019-18.266016-18.910699-58.414411-53.716412-57.947783-75.776847 0.25992-12.256138 11.694343-31.828916 26.745131-35.660174C308.140521 60.061302 335.4454 106.057893 362.879216 133.492732zM447.57213 59.944646c21.98778 21.988804 64.526619 49.748031 62.402235 82.462107-1.876744 28.958542-25.740244 34.604122-42.34441 33.431414-34.041304-2.40477-58.075697-40.246633-82.46313-64.633043-17.623379-17.623379-60.030212-51.219545-60.176544-75.776847-0.118704-20.160155 17.244756-37.748742 40.116673-37.886889C396.484591-2.648948 422.677137 35.049652 447.57213 59.944646zM581.294714 80.003494c-8.083096 19.457144-32.6844 19.775392-44.575218 17.830087-26.209942-4.287653-55.388495-42.017976-78.005608-64.633043-19.742646-19.742646-59.654658-46.771233-57.94676-78.004585 0.899486-16.411785 16.822131-34.425044 35.660174-35.660174 35.869952-2.355651 67.431785 42.915415 89.148389 64.632019C545.249777 3.842907 598.728782 38.043846 581.294714 80.003494zM579.065953 1.998909c-4.198625-16.244986-62.272275-53.510728-60.175521-66.862827 2.746554-17.494443 49.599651-17.277502 62.403259-8.915044C605.4693-57.992417 607.132172-4.163441 579.065953 1.998909z"  horiz-adv-x="1024" />

    
    <glyph glyph-name="xiexuexiangbao" unicode="&#59120;" d="M712.154909 482.081745l-5.682605 0 0 79.331447-51.792952 0 0-79.331447L369.810821 482.081745l0 79.331447-51.773491 0 0-79.331447-5.72031 0C246.945173 482.081745 193.764411 428.920443 193.764411 363.529136l0-339.383587c0-65.386442 53.185628-118.570854 118.552609-118.570854l18.653344 0 0-7.393954c0-19.075404 15.473908-34.526202 34.526202-34.526202 19.062025 0 34.532283 15.450798 34.532283 34.526202l0 7.393954 224.451936 0 0-7.393954c0-19.075404 15.455663-34.526202 34.532283-34.526202 19.057159 0 34.527418 15.450798 34.527418 34.526202l0 7.393954 18.614422 0c65.386442 0 118.57207 53.184411 118.57207 118.570854L830.726979 363.529136C830.726979 428.920443 777.541351 482.081745 712.154909 482.081745L712.154909 482.081745zM776.477079 24.150414c0-35.454247-28.849679-64.302709-64.32217-64.302709l-399.837889 0c-35.454247 0-64.302709 28.848462-64.302709 64.302709L248.014311 363.529136c0 35.459112 28.848462 64.302709 64.302709 64.302709l399.837889 0c35.472492 0 64.32217-28.843597 64.32217-64.302709L776.477079 24.150414 776.477079 24.150414zM374.058179 349.750766c-14.300167 0-25.884313-11.60239-25.884313-25.903774l0-260.014434c0-14.301384 11.584145-25.903774 25.884313-25.903774 14.32571 0 25.908639 11.60239 25.908639 25.903774L399.966818 323.846992C399.966818 338.148376 388.383889 349.750766 374.058179 349.750766L374.058179 349.750766zM650.427129 349.750766c-14.301384 0-25.884313-11.60239-25.884313-25.903774l0-260.014434c0-14.301384 11.582929-25.903774 25.884313-25.903774 14.306249 0 25.908639 11.60239 25.908639 25.903774L676.335768 323.846992C676.335768 338.148376 664.733378 349.750766 650.427129 349.750766L650.427129 349.750766zM369.810821 623.301524c0 33.315972 27.115219 60.411731 60.436057 60.411731l164.020744 0c33.315972 0 60.411731-27.090893 60.411731-60.411731l0-27.357265 51.792952 0L706.472304 623.301524c0 61.866439-50.343109 112.204682-112.204682 112.204682L430.246878 735.506206c-61.884683 0-112.209548-50.343109-112.209548-112.204682l0-27.357265 51.773491 0L369.810821 623.301524 369.810821 623.301524zM369.810821 623.301524"  horiz-adv-x="1024" />

    
    <glyph glyph-name="10" unicode="&#58893;" d="M489.511311 569.976692M512.001535 834.627211c-248.877277 0-450.629257-201.727421-450.629257-450.625164 0-248.868067 201.75198-450.630281 450.629257-450.630281 248.873184 0 450.625164 201.762213 450.625164 450.630281C962.621583 632.904906 760.874719 834.627211 512.001535 834.627211L512.001535 834.627211zM512.001535-30.574087c-228.965785 0-414.576133 185.631838-414.576133 414.574087 0 228.970902 185.610348 414.574087 414.576133 414.574087 228.961692 0 414.569994-185.603185 414.569994-414.574087C926.571529 155.057751 740.963227-30.574087 512.001535-30.574087L512.001535-30.574087zM284.046776 228.076788l82.226746 0L366.273523 523.597385 302.984081 523.597385l0 19.435655c29.402657 4.983501 51.828412 12.957103 69.270666 22.924105l23.422456 0 0-337.88138 75.748195 0 0-25.415856L284.046776 202.659909 284.046776 228.076788zM531.222295 385.555425c0 126.08258 40.865733 186.881294 107.145276 186.881294 65.782216 0 106.646925-60.798714 106.646925-186.881294 0-127.576607-40.86471-189.373045-106.646925-189.373045C572.088028 196.18238 531.222295 257.978818 531.222295 385.555425zM716.110189 385.555425c0 108.141976-30.896684 162.462139-77.742619 162.462139-47.343261 0-78.240969-54.320163-78.240969-162.462139 0-110.134353 30.897707-164.953889 78.240969-164.953889C685.212482 220.601536 716.110189 275.420049 716.110189 385.555425z"  horiz-adv-x="1024" />

    
    <glyph glyph-name="new" unicode="&#59029;" d="M527.517415 767.493208c-202.233957 0-366.750895-141.015687-366.750895-314.358641 0-95.355765 51.580772-185.054693 141.53962-246.14505 12.000312-8.17417 28.265764-5.028527 36.387745 6.967692 8.146541 11.971659 5.004991 28.268834-6.967692 36.386722-75.340919 51.16531-118.567419 125.063367-118.567419 202.790636 0 144.44581 141.016711 261.966387 314.358641 261.966387 173.347047 0 314.363757-117.520577 314.363757-261.966387 0-144.449903-141.016711-261.966387-314.363757-261.966387-1.622964 0-3.009544-0.627287-4.556783-0.918929-12.363585 2.202155-24.938995-4.269233-29.288047-16.529465-5.028527-14.226003-37.95852-38.193881-77.07133-60.406788 14.305821 47.647183 7.442506 57.864896 2.88163 64.652486-5.500271 8.17417-14.670118 13.043061-24.490787 13.043061-14.462387 0-26.198685-11.70867-26.198685-26.194592 0-4.768607 1.25969-9.222035 3.485381-13.047154-2.64627-14.930037-14.093996-49.825802-27.088962-81.760119-4.033873-9.901511-1.622964-21.270443 6.027274-28.708855 5.000897-4.820796 11.552104-7.362688 18.232247-7.362688 3.589758 0 7.203052 0.734734 10.636245 2.254344 29.864168 13.307074 120.898511 56.58167 153.588027 102.873995 199.385073 2.854001 360.599801 142.507668 360.599801 314.071092C894.273427 626.47752 729.756489 767.493208 527.517415 767.493208zM401.342738 370.718509l-33.43346 0 0 86.596264c0 9.147334-2.25025 16.032138-6.745634 20.653389-4.497431 4.619204-9.923 6.930853-16.276708 6.930853-8.702196 0-16.32685-3.568269-22.874987-10.704806-6.550183-7.136537-9.824763-17.887392-9.824763-32.250518l0-71.225181-33.432437 0L278.754748 509.32738l30.500665 0 0-32.113395c10.653641 23.330358 25.610284 34.995025 44.870953 34.995025 13.000082 0 24.121374-3.842515 33.359782-11.527544 9.238408-7.68503 13.857613-21.181415 13.857613-40.48404L401.343761 370.718509zM535.514553 414.908964l30.207999-3.842515c-3.911076-12.535501-11.535731-22.87294-22.874987-31.015388-11.341303-8.143471-25.565259-12.214183-42.670845-12.214183-20.529569 0-37.050848 6.450922-49.563836 19.35072-12.514012 12.899798-18.769482 30.373775-18.769482 52.423977 0 20.950148 6.305613 38.289048 18.915815 52.012607 12.610202 13.723559 29.716812 20.584827 51.322899 20.584827 21.1149 0 37.439704-6.771217 48.976458-20.310581 11.533684-13.541411 17.303085-30.925337 17.303085-52.148707l-0.147356-3.568269-101.618399 0c0-9.423627 0.952698-16.971533 2.859118-22.64372 1.906419-5.67321 5.693676-10.614755 11.363815-14.821567 5.669116-4.208858 12.757558-6.312776 21.262256-6.312776C518.601348 392.402367 529.746176 399.903202 535.514553 414.908964zM533.462824 456.353888c-0.099261 9.971096-3.300162 18.11559-9.604752 24.428366-6.305613 6.312776-14.103206 9.468652-23.388686 9.468652-9.18929 0-16.863063-2.950192-23.022343-8.851599-6.158257-5.901407-9.776667-14.250562-10.851139-25.045419L533.462824 456.353888zM782.303262 509.32738 738.89973 370.718509l-30.060643 0-26.687826 97.162924-26.541493-97.162924-30.940686 0-45.602617 138.607848 35.486212 0 29.1806-93.183286 25.515117 93.183286 30.353308 0 25.955138-93.183286 28.593222 93.183286L782.303262 509.326357z"  horiz-adv-x="1024" />

    
    <glyph glyph-name="jiantou-copy" unicode="&#58923;" d="M672 384l-384-384c-12.8-12.8-12.8-31.999 0-44.799s31.999-12.8 44.799 0l403.2 403.2c6.4 6.4 12.8 19.199 12.8 25.6s0 19.199-6.4 25.599l-409.6 409.6c-12.8 12.8-31.999 12.8-44.799 0s-12.8-31.999 0-44.799l384-390.399z"  horiz-adv-x="1024" />

    
    <glyph glyph-name="bao-copy" unicode="&#58909;" d="M849.106 690.265h-168.661v55.688c0 30.765-25.159 55.686-56.221 55.686h-224.882c-31.062 0-56.221-24.921-56.221-55.686v-55.688h-168.661c-62.095 0-112.441-49.866-112.441-111.368v-501.166c0-61.505 50.346-111.37 112.441-111.37h674.646c62.095 0 112.441 49.866 112.441 111.37v501.166c0 61.503-50.346 111.368-112.441 111.368zM399.342 718.11c0 15.368 12.593 27.844 28.11 27.844h168.662c15.517 0 28.11-12.474 28.11-27.844v-27.844h-224.882v27.844zM905.326 77.733c0-30.767-25.159-55.688-56.221-55.688h-674.646c-31.062 0-56.221 24.921-56.221 55.688v306.267h285.067c-2.332-8.966-3.964-18.18-3.964-27.844 0-61.503 50.346-111.368 112.441-111.368 62.095 0 112.441 49.866 112.441 111.368 0 9.663-1.63 18.877-3.964 27.844h285.067v-306.267zM455.562 356.156c0 10.19 2.979 19.628 7.786 27.844h96.868c4.808-8.216 7.787-17.653 7.787-27.844 0-30.765-25.159-55.685-56.221-55.685-31.061-0.001-56.22 24.92-56.22 55.685zM905.326 439.683h-787.087v139.215c0 30.765 25.159 55.685 56.221 55.685h674.646c31.062 0 56.221-24.921 56.221-55.685v-139.215z"  horiz-adv-x="1024" />

    
    <glyph glyph-name="fangdajing" unicode="&#58886;" d="M462.204897 117.987461c-178.729637 0-324.266291 145.469116-324.335876 324.283688 0.069585 178.89746 145.606239 324.468906 324.403414 324.503698 178.864714 0 324.403414-145.538701 324.470953-324.43616C786.743388 263.491369 641.204687 117.987461 462.204897 117.987461L462.204897 117.987461zM462.272435 732.518648c-159.933549-0.034792-290.077631-130.227993-290.14517-290.2475 0.067538-159.918199 130.210597-290.010093 290.077631-290.010093 160.053276 0 290.280246 130.125663 290.280246 290.077631C752.417605 602.323401 622.258173 732.518648 462.272435 732.518648L462.272435 732.518648zM270.230608 442.43897l-34.273595 0c0 124.797307 101.586676 226.334865 226.316445 226.334865l0-34.258245C356.406293 634.516614 270.230608 548.340929 270.230608 442.43897L270.230608 442.43897zM869.24745 5.083018c-4.348028 0-8.763594 1.657756-12.111852 5.006014L666.361647 200.847633c-6.700609 6.681166-6.700609 17.526165 0 24.224728 6.698562 6.681166 17.526165 6.681166 24.224728 0l190.773951-190.756555c6.681166-6.698562 6.681166-17.526165 0-24.226774C878.010021 6.740774 873.66404 5.083018 869.24745 5.083018L869.24745 5.083018z"  horiz-adv-x="1024" />

    
    <glyph glyph-name="weibiaoti101" unicode="&#58892;" d="M753.49 341.461l-30.759 89.705c-0.968 2.812-2.538 5.319-4.526 7.443-1.382-20.701-18.094-37.618-39.32-38.708-5.246-0.264-10.416-0.4-15.364-0.4l-0.468 0c-14.114 0.002-27.53 1.043-40.264 2.93-0.063-2.605 0.339-5.265 1.316-7.854 4.049-10.731 16.035-16.14 26.775-12.089l0 0.008 39.495 14.927 93.724-273.329c16.223 17.731 36.723 31.206 60.116 39.138 15.041 5.1 30.666 7.693 46.417 7.693 50.18 0 95.779-25.878 121.896-66.898 15.54 0.742 19.52 9.843-5.449 42.379-40.262 52.462-96.262 62.634-135.649 62.106-2.473 6.662-5.03 13.629-7.691 20.989C839.603 296.235 785.395 328.019 753.49 341.461zM565.162 753.047c0-0.278 0.009-0.566 0.033-0.886 1.065-20.101 5.638-34.101 5.705-47.991 0.019-7.164-1.367-14.312-5.264-21.545-0.379-0.708-0.988-1.314-1.707-1.695-11.433-6.117-23.72-8.034-36.218-8.034-10.918 0.008-22.066 1.435-33.316 2.903-10.499 1.365-19.768 3.526-28.035 6.47 12.698-16.427 30.914-28.755 52.712-33.829 50.271-11.71 100.51 19.556 112.228 69.823 5.177 22.243 1.931 44.473-7.64 63.369-16.737-2.053-39.262-6.22-50.632-14.998C567.836 762.651 565.205 758.464 565.162 753.047zM416.745 557.325l-0.026 0.059-0.179 0.383c-4.599 10.101-4.982 21.393-1.089 31.782 3.891 10.389 11.606 18.642 21.705 23.231 5.452 2.487 11.233 3.739 17.186 3.739 16.258 0 31.108-9.556 37.835-24.346l0.205-0.41c0.307-0.628 0.817-1.635 1.533-2.972 1.447-2.725 3.883-7.068 7.273-12.355 3.964-6.206 9.705-14.434 17.167-23.373 7.49 39.268-8.296 82.574-41.244 90.784-35.469 8.845-86.885-10.419-107.805-71.252-28.271-83.822-34.35-138.377-23.606-230.675 10.391-53.472 41.771-68.576 73.39-72.24 0.143-0.024 0.274-0.065 0.416-0.089l157.555-24.499 59.021-149.596c8.058-20.425 27.621-32.889 48.324-32.889 6.341 0 12.791 1.168 19.052 3.635 26.673 10.529 39.77 40.692 29.251 67.366l-69.943 177.275c-6.753 17.11-22.164 29.435-40.331 32.26l-130.539 20.305c-0.677 30.635 2.696 62.358 7.521 92.584-9.543 7.504-17.999 15.144-25.353 22.496C438.979 513.442 421.325 547.668 416.745 557.325zM663.055 407.814c0.161 0 0.308 0 0.469 0 4.942 0 9.918 0.136 14.937 0.392 18.333 0.937 32.439 16.548 31.504 34.881-0.935 18.333-16.556 32.437-34.879 31.501-3.974-0.203-7.827-0.298-11.562-0.298-63.679 0.138-106.939 28.049-136.773 57.323-14.727 14.59-25.574 29.41-32.559 40.334-3.495 5.461-6.023 9.953-7.614 12.923-0.791 1.487-1.353 2.595-1.675 3.266-0.136 0.276-0.233 0.477-0.295 0.594l0.004 0c-7.606 16.71-27.308 24.093-44.017 16.487-16.717-7.596-24.093-27.298-16.496-44.008 1.105-2.289 17.822-38.979 55.842-76.803C517.55 446.799 578.73 407.817 663.055 407.814zM309.767 294.61 309.767 553.326c0 12.245-9.925 22.174-22.17 22.174L25.181 575.5c-12.245 0-22.169-9.929-22.169-22.174L3.012 294.61c0-12.25 9.924-22.176 22.169-22.176l262.416 0C299.842 272.435 309.767 282.361 309.767 294.61zM392.505 66.083c-21.955 64.74-92.225 99.431-156.973 77.479-64.739-21.95-99.431-92.232-77.48-156.972s92.225-99.43 156.973-77.48C379.765-68.938 414.456 1.344 392.505 66.083zM290.981-19.974c-25.578-8.675-53.346 5.039-62.013 30.609-8.667 25.577 5.039 53.346 30.609 62.013 25.578 8.675 53.346-5.04 62.013-30.609C330.265 16.461 316.559-11.299 290.981-19.974zM826.347 348.432c34.987 0 34.987 126.721 0 126.721-34.991 0-63.36-28.365-63.36-63.36S791.355 348.432 826.347 348.432zM747.684 48.077 482.781 48.077c-22.902 46.206-30.779 93.373-33.387 124.059 6.801 2.081 11.779 8.338 11.779 15.82l0 45.702c0 9.178-7.441 16.62-16.619 16.62L105.939 250.278c-9.177 0-16.619-7.441-16.619-16.62l0-45.702c0-9.178 7.442-16.619 16.619-16.619l1.832 0C89.722 127.05 61.868 50.284 61.868-1.78c0 0 28.235 0 71.636 0-6.233 31.092-2.119 63.19 12.149 92.095 17.098 34.622 46.644 60.528 83.209 72.916 15.053 5.108 30.666 7.688 46.425 7.688 61.973 0 116.983-39.446 136.889-98.172 8.434-24.868 9.64-50.458 4.822-74.526 9.944 0 19.692 0 29.187 0 25.042 0 48.303 0 68.553 0l234.121 0C745.54 14.765 745.156 31.592 747.684 48.077zM850.886 143.563c-64.74-21.95-99.431-92.232-77.479-156.972 21.95-64.74 92.224-99.43 156.972-77.48 64.74 21.951 99.43 92.233 77.48 156.973C985.908 130.823 915.634 165.514 850.886 143.563zM906.334-19.974c-25.577-8.675-53.346 5.039-62.013 30.609-8.667 25.577 5.04 53.346 30.609 62.013 25.578 8.675 53.346-5.04 62.013-30.609C945.618 16.461 931.912-11.299 906.334-19.974zM634.008 791.065c-1.775 12.618-5.757 24.634-11.606 35.602-15.875 29.788-45.358 51.704-81.367 56.412C536.283 883.704 531.566 884 526.901 884c-0.006 0-0.01 0-0.019 0-53.407-0.002-99.855-39.635-106.951-94.042-0.617-4.733-0.921-9.434-0.921-14.076 0-6.422 0.574-12.742 1.68-18.919 4.102-23.022 11.03-39.551 22.515-51.105 11.476-11.543 27.915-18.624 52.269-21.823 11.225-1.469 22.06-2.836 32.236-2.826 11.241 0 21.615 1.639 31.168 6.458 2.757 5.561 3.692 10.709 3.708 16.503 0.067 11.882-4.506 26.43-5.688 47.519-0.032 0.448-0.041 0.903-0.051 1.359-0.033 8.557 4.711 15.426 11.174 20.218 6.49 4.879 14.86 8.229 23.687 10.752C606.965 788.353 623.742 790.116 634.008 791.065z"  horiz-adv-x="1025" />

    
    <glyph glyph-name="baozhuanhuan" unicode="&#58991;" d="M914.286-128h-804.571c-53.638 0-97.524 43.886-97.524 97.524l73.143 585.143c0 53.638 43.886 97.524 97.524 97.524h73.143c7.314 136.533 117.029 243.81 256 243.81s248.686-107.276 256-243.81h73.143c53.638 0 97.524-43.886 97.524-97.524l73.143-585.143c-0-53.638-43.886-97.524-97.524-97.524zM512 847.238c-109.714 0-199.924-85.333-207.238-195.048h414.476c-7.314 109.714-97.524 195.048-207.238 195.048zM889.905 554.667c0 26.819-21.943 48.762-48.762 48.762l-658.286-0c-26.819 0-48.762-21.943-48.762-48.762l-12.19-90.21c39.010-46.324 158.476-182.857 307.2-219.429 9.752 36.571 41.448 63.39 82.895 63.39 36.571 0 68.267-24.381 80.457-58.514 143.848 43.886 268.19 170.667 307.2 214.552l-9.752 90.21zM475.429 225.524c0-19.505 17.067-36.571 36.571-36.571s36.571 17.067 36.571 36.571c0 19.505-17.067 36.571-36.571 36.571s-36.571-17.067-36.571-36.571zM909.41 401.067c-53.638-53.638-175.543-163.352-314.514-199.924-9.752-36.571-43.886-60.952-80.457-60.952-36.571 0-68.267 21.943-80.457 56.076-170.667 31.695-292.571 175.543-316.952 207.238l-56.076-433.981c0-26.819 21.943-48.762 48.762-48.762h804.571c26.819 0 48.762 21.943 48.762 48.762l-53.638 431.543z"  horiz-adv-x="1024" />

    
    <glyph glyph-name="xiazai1" unicode="&#58882;" d="M947.105535 595.91555c-0.55752 14.541288-12.512299 26.158905-27.189656 26.158905L383.953339 622.074455c-15.027764 0-27.210126-12.184771-27.210126-27.21133l0-5.442748c0-15.031376 12.182363-27.214943 27.210126-27.214943l492.697512 0-47.497607-181.054448-466.326677-35.883602-99.066437 309.45874 0 0.003612c0 15.031376-12.183567 27.216147-27.213739 27.216147L104.256314 681.945884c-15.031376 0-27.214943-12.184771-27.214943-27.216147l0-5.442748c0-15.026559 12.182363-27.213739 27.214943-27.213739l104.949903 0 120.891615-377.624339c-21.484404-16.407717-35.344144-42.28726-35.344144-71.402348 0-49.596436 40.210105-89.805337 89.807746-89.805337l6.348267 0c49.597641 0 89.807746 40.208901 89.807746 89.805337 0 10.495352-1.809834 20.570456-5.118832 29.933908l227.945164 0c-3.308998-9.363453-5.118832-19.439761-5.118832-29.933908 0-49.596436 40.208901-89.805337 89.806541-89.805337l7.105676 0c49.601253 0 89.810154 40.208901 89.810154 89.805337s-40.208901 89.805337-89.810154 89.805337l-0.150518 0-6.955157 0L390.904884 262.851902l-1.69544 0-7.621051 23.802388 467.158743 35.947422c14.470243-2.159037 28.940486 5.812421 34.003928 19.599913l0.594849 2.266206c0.237217 0.770655 0.440718 1.552146 0.611707 2.340863l60.637267 231.134952c1.346237 2.893567 2.198774 6.066496 2.448032 9.405598C947.500495 590.231972 947.505312 593.112294 947.105535 595.91555L947.105535 595.91555zM790.349584 202.981677l2.116892 0c16.531744 0 29.933908-13.405777 29.933908-29.937521 0-16.532948-13.402164-29.933908-29.933908-29.933908l-2.116892 0c-16.531744 0-29.937521 13.40096-29.937521 29.933908C760.412063 189.5759 773.81784 202.981677 790.349584 202.981677L790.349584 202.981677zM388.789197 202.981677c16.536561 0 29.938725-13.405777 29.938725-29.937521 0-16.532948-13.402164-29.933908-29.938725-29.933908l-2.112075 0c-16.531744 0-29.937521 13.40096-29.937521 29.933908 0 16.531744 13.405777 29.937521 29.937521 29.937521L388.789197 202.981677 388.789197 202.981677zM388.789197 202.981677"  horiz-adv-x="1024" />

    
    <glyph glyph-name="kefu" unicode="&#59103;" d="M888.839671-64.535573c-16.458857 144.17361-114.487497 263.348873-246.994394 310.36877 81.742722 44.505633 137.216151 131.155109 137.216151 230.768851 0 145.028071-117.565603 262.597767-262.59265 262.597767S253.877151 621.630119 253.877151 476.602048c0-99.644441 55.504128-186.320523 137.282666-230.809783C261.042341 199.565431 164.266227 83.715913 145.307434-57.009156c-1.438769-3.228531-2.309602-6.753821-2.309602-10.513448l0.23536-2.420119c0-9.033747 4.614088-16.98586 11.610432-21.644973 2.858094-2.635013 6.65763-4.263094 10.827603-4.263094l1.817392 0c0.580215-0.038886 1.157359-0.088004 1.746784-0.088004 0.589424 0 1.166569 0.049119 1.74576 0.088004L862.866113-95.850789c0.579191-0.039909 1.156336-0.088004 1.744737-0.088004 13.934361 0 25.235754 11.296277 25.235754 25.230638l-0.23536 2.341325C889.611244-67.006857 889.044332-65.838242 888.839671-64.535573zM297.892621 476.530416c0 120.677477 97.831142 218.508619 218.508619 218.508619 120.6785 0 218.508619-97.831142 218.508619-218.508619 0-120.6785-97.830119-218.508619-218.508619-218.508619C395.723763 258.021797 297.892621 355.851916 297.892621 476.530416zM484.364593 216.169597c10.540054-1.288343 21.210068-2.153036 32.104185-2.153036 10.894118 0 21.570271 0.870834 32.120558 2.159176 143.734612-14.086833 259.794931-121.783671 286.87059-261.294075L197.698664-45.118338C224.780463 94.352157 340.66989 202.067414 484.364593 216.169597zM889.044332 570.491415l-16.000416 0C864.688621 758.824781 706.138582 863.94084 512.406253 863.94084c-193.731306 0-352.287485-105.116059-360.63664-293.449425l-16.812921 0c-16.052604 0-29.064966-13.011338-29.064966-29.064966L105.891725 383.903809c0-16.052604 13.011338-29.063943 29.064966-29.063943l28.531823 0c16.051581 0 29.062919 13.011338 29.062919 29.063943l0 23.437805c0.474814 1.595334 0.776689 3.338025 0.845251 5.231141 1.497097 40.531112 0.60989 142.199653 0.60989 142.199653 0 174.806281 142.831033 266.74318 318.398654 266.74318 175.562505 0 318.39456-91.936899 318.39456-266.74318 0 0 0.802272-104.297414-0.574075-140.418077-0.193405-4.958942 0.37453-8.93858 1.219781-12.07706L831.445496 383.903809c0-16.052604 13.011338-29.063943 29.064966-29.063943l28.531823 0c16.051581 0 29.062919 13.011338 29.062919 29.063943L918.105205 541.426449C918.107251 557.480077 905.095913 570.491415 889.044332 570.491415z"  horiz-adv-x="1024" />

    
    <glyph glyph-name="jiantou1-copy-copy" unicode="&#59302;" d="M473.968 817.557v-733.558l-180.328 187.319c-4.796 4.795-12.57 4.795-17.367 0l-37.627-37.627c-4.795-4.796-4.795-12.57 0-17.367l227.011-235.807c0.229-0.272 0.465-0.541 0.721-0.797l1.259-1.259 35.009-36.367c2.568-2.567 5.99-3.746 9.352-3.564 3.369-0.188 6.8 0.991 9.372 3.562l36.267 37.627c0.241 0.243 0.463 0.496 0.68 0.752l227.050 235.852c4.797 4.796 4.797 12.57 0 17.367l-37.627 37.627c-4.795 4.795-12.569 4.795-17.367 0l-178.637-185.562v731.8c0 6.783-5.498 12.28-12.28 12.28h-53.213c-6.781 0-12.28-5.497-12.28-12.28z"  horiz-adv-x="1024" />

    
    <glyph glyph-name="tengxunweibo" unicode="&#58888;" d="M276.212856 773.31582c-151.746076 0-275.16806-123.408681-275.16806-275.153734 0-43.349297 10.29139-86.98205 30.197766-125.450177 6.246261-12.06478 20.742417-16.821107 32.79287-10.432607 12.348236 6.086625 17.068747 20.85191 10.716063 32.774451-16.537651 32.116465-24.804942 66.929342-24.804942 103.109356 0 124.650975 101.633748 226.106668 226.266303 226.106668 124.916011 0 226.394217-101.455693 226.394217-226.106668 0-124.632555-101.477182-226.110761-226.394217-226.110761-17.209964 0-34.402531 1.882883-50.958602 5.679349-13.129019 3.121084-26.01142-5.145184-29.241998-18.438954-2.732228-12.987802 5.145184-26.13524 18.416442-29.256324 20.051685-4.473895 41.060161-6.78145 61.784158-6.78145 151.868873 0 275.331789 123.426077 275.331789 274.907117C551.544645 649.907139 428.081729 773.31582 276.212856 773.31582zM228.128721 428.659129c14.888082-10.29139 32.756031-16.396435 52.146661-16.396435 50.537 0 91.044576 40.634466 91.044576 91.185792 0 50.26787-40.507576 90.902336-91.044576 90.902336-50.26787 0-91.182722-40.634466-91.182722-90.902336 0-13.006222 2.732228-25.339108 7.594979-36.44505-19.521612-20.6012-41.060161-46.470381-62.070684-77.897138C76.241428 302.66046 10.943236 148.981359 29.504988-57.803241c1.206478-12.722766 11.781324-29.579689 24.238031-29.579689l2.445702 0c13.416568 0 23.442922 20.513196 22.35924 33.926694C64.318888 99.938386 96.700389 240.414791 174.063361 356.140489 192.214766 383.500627 210.900338 410.224268 228.128721 428.659129zM787.110755 571.178053c-20.157085-0.817622-40.24254 3.52836-58.767452 12.205996-64.087621 30.485315-91.342358 107.029642-60.57768 170.8379 30.201859 64.215534 106.783025 91.308589 170.696684 60.824297 64.091714-30.05962 91.168396-106.870006 60.718897-170.696684-4.044106-8.801457-9.226129-17.352203-15.189957-24.786523-4.753257-5.978155-3.76065-14.779611 2.202155-19.517519 5.959735-4.756327 14.902408-3.65525 19.517519 2.289136 7.274684 9.226129 13.271258 19.394722 18.667152 30.092365 37.117362 77.504188 3.90289 170.998559-73.816193 207.833489C772.774235 877.239727 679.440523 844.059024 642.570801 766.287753c-37.015032-77.769224-3.797489-170.998559 73.954339-207.973682 22.25077-10.577916 47.022966-15.705704 71.435982-15.171538 7.809873 0.407276 13.914918 6.758937 13.557784 14.496156C801.37769 565.374884 794.84695 571.320293 787.110755 571.178053zM1013.805824 465.511455c-81.835843 30.201859-144.008858 79.921237-184.392614 147.806347-9.654894 15.989159-16.679891 31.033807-22.10853 44.591591 8.834202 4.880147 16.429181 12.722766 21.149693 22.478967 12.032034 25.727964 1.206478 56.496735-24.521486 68.812225-25.90602 12.348236-56.637951 1.366114-68.844971-24.38027-12.351306-25.870204-1.489934-56.496735 24.699542-68.953442 6.457062-2.837628 13.271258-4.734838 20.440541-4.880147 5.676279-14.902408 13.554714-32.381501 24.343431-50.817386 30.092365-50.925856 89.285512-120.035864 199.724811-160.812569 6.918573-2.431376 14.266935 0.676405 17.457604 7.046486 0 0.407276 0.287549 0.672312 0.428765 1.366114C1024.62831 454.955028 1021.117346 462.654384 1013.805824 465.511455z"  horiz-adv-x="1024" />

    
    <glyph glyph-name="icon" unicode="&#58953;" d="M139.113361 514.047892l750.10391 0 0-57.700143-750.10391 0 0 57.700143ZM831.603085 744.848465l-86.637196 0L744.965889 802.548608 744.965889 831.399703 687.266769 831.399703 687.266769 802.548608l0-57.700143L341.064886 744.848465 341.064886 802.548608 341.064886 831.399703l-57.700143 0L283.364743 802.548608l0-57.700143-86.637196 0c-63.717184 0-115.314329-51.786457-115.314329-115.543549L81.413218 52.587961c0-63.438844 51.65138-115.543549 115.314329-115.543549l634.876562 0c63.717184 0 115.314329 51.786457 115.314329 115.543549L946.918437 629.304915C946.917414 692.74376 895.266034 744.848465 831.603085 744.848465zM889.217271 52.587961c0-31.945573-25.820062-57.843406-57.614186-57.843406L196.727547-5.255445c-31.819706 0-57.614186 26.297946-57.614186 57.843406L139.113361 629.304915c0 31.945573 25.820062 57.843406 57.614186 57.843406l86.637196 0 0-57.700143 0-28.850072 57.700143 0 0 28.850072 0 57.700143L687.266769 687.148321l0-57.700143 0-28.850072 57.700143 0 0 28.850072 0 57.700143 86.637196 0c31.819706 0 57.614186-26.297946 57.614186-57.843406L889.218294 52.587961zM444.941722 52.444698l-40.232306 0 0 253.227352-56.009641-3.549849 0 29.780257 96.241948 11.833513L444.941722 52.444698zM653.203976 52.444698l-40.232306 0 0 253.227352-56.009641-3.549849 0 29.780257 96.241948 11.833513L653.203976 52.444698z"  horiz-adv-x="1024" />

    
    <glyph glyph-name="weixin" unicode="&#58625;" d="M270.496 551.497c0-20.819 16.877-37.697 37.697-37.697s37.697 16.877 37.697 37.697c0 0 0 0 0 0 0 20.819-16.877 37.697-37.697 37.697-20.819 0-37.697-16.877-37.697-37.697 0-0 0-0 0-0zM564.093 356.558c0-16.298 13.212-29.51 29.51-29.51s29.51 13.212 29.51 29.51c0 16.298-13.212 29.51-29.51 29.51-16.298 0-29.51-13.212-29.51-29.51zM462.786 551.497c0-20.819 16.877-37.697 37.697-37.697s37.697 16.877 37.697 37.697c0 0 0 0 0 0 0 20.819-16.877 37.697-37.697 37.697-20.819 0-37.697-16.877-37.697-37.697 0-0 0-0 0-0zM813.979 834.391h-604.984c-80.099 0-145.035-65.148-145.035-145.512l0-604.231c0-80.364 64.936-145.512 145.035-145.512h604.984c80.1 0 145.035 65.148 145.035 145.512v604.23c0.001 80.365-64.934 145.513-145.035 145.513zM399.842 234.599c-33.871 0-61.109 6.919-95.052 13.624l-94.859-47.563 27.138 81.628c-67.935 47.481-108.585 108.656-108.585 183.207 0 129.113 122.189 230.775 271.358 230.775 133.428 0 250.314-81.236 273.796-190.57-8.634 0.965-17.335 1.594-26.129 1.594-128.901 0-230.705-96.199-230.705-214.751 0-19.731 3.071-38.733 8.374-56.861-8.374-0.659-16.819-1.083-25.335-1.083zM800.124 139.546l20.411-67.816-74.436 40.771c-27.139-6.803-54.399-13.626-81.422-13.626-129.108 0-230.798 88.248-230.798 196.924 0 108.495 101.689 196.929 230.798 196.929 121.937 0 230.497-88.434 230.497-196.929 0-61.2-40.581-115.39-95.049-156.253zM711.961 356.558c0-16.298 13.212-29.51 29.51-29.51s29.51 13.212 29.51 29.51c0 16.298-13.212 29.51-29.51 29.51-16.298 0-29.51-13.212-29.51-29.51z"  horiz-adv-x="1024" />

    
    <glyph glyph-name="huidaodingbu" unicode="&#58901;" d="M832 768c0-17.6-14.4-32-32-32h-576c-17.6 0-32 14.4-32 32s14.4 32 32 32h576c17.6 0 32-14.4 32-32zM544 0c0-17.6-14.4-32-32-32s-32 14.4-32 32v512c0 17.6 14.4 32 32 32s32-14.4 32-32v-512zM806.144 289.6c-5.801-5.766-13.796-9.33-22.624-9.33s-16.823 3.564-22.626 9.331l-271.518 271.518c-5.766 5.801-9.33 13.796-9.33 22.624s3.564 16.823 9.331 22.626c5.799 5.764 13.795 9.328 22.622 9.328 8.828 0 16.823-3.564 22.626-9.331l271.518-271.518c5.766-5.801 9.33-13.796 9.33-22.624s-3.564-16.823-9.331-22.626zM534.656 606.4c5.766-5.801 9.33-13.796 9.33-22.624s-3.564-16.823-9.331-22.626l-271.55-271.55c-12.448-12.448-32.8-12.448-45.248 0s-12.448 32.8 0 45.248l271.52 271.52c5.804 5.785 13.812 9.362 22.656 9.362 8.828 0 16.823-3.564 22.626-9.331z"  horiz-adv-x="1024" />

    
    <glyph glyph-name="erweima" unicode="&#58911;" d="M383.762884 895.200703H85.125359C38.166631 895.200703 0.000176 857.034247 0.000176 810.07552v-298.637526c0-46.958728 38.166455-85.125183 85.125183-85.125183h298.637525c46.958728 0 85.125183 38.166455 85.125183 85.125183V810.07552c0 46.958728-38.166455 85.125183-85.125183 85.125183zM85.225271 511.437994L85.125359 809.975607l298.537613 0.099913 0.099912-298.537614-298.537613-0.099912zM639.43817 170.537613h85.225095V340.987804H554.213074v-85.225095h85.225096v-85.225096zM724.663265 42.650015h85.325007v-85.325008h-85.325007v85.325008zM937.875871-42.674993h85.225095v-85.225095h-85.225095v85.225095zM639.43817 42.650015h-85.225096v-170.550103h170.450191v85.225095h-85.225095v85.325008zM937.875871 213.100205h-127.887599v-170.45019h85.225095v85.225095h127.887599V340.987804h-85.225095v-127.887599zM170.450366 724.6506h127.987511v-127.887599H170.450366v127.887599zM937.975783 895.200703H639.338257c-46.958728 0-85.125183-38.166455-85.125183-85.125183v-298.637526c0-46.958728 38.166455-85.125183 85.125183-85.125183h298.537614c46.958728 0 85.225095 38.166455 85.225095 85.125183V810.07552c0 46.958728-38.166455 85.125183-85.125183 85.125183zM639.43817 511.437994l-0.099913 298.537613 298.537614 0.099913 0.099912-298.537614-298.537613-0.099912zM724.663265 724.6506h127.887598v-127.887599h-127.887598v127.887599zM383.762884 340.987804H85.125359c-46.958728 0-85.125183-38.166455-85.125183-85.225095v-298.637526c0-46.958728 38.166455-85.125183 85.125183-85.125183h298.637525c46.958728 0 85.125183 38.166455 85.125183 85.125183v298.737438c0 46.958728-38.166455 85.125183-85.125183 85.125183zM85.225271-42.774905L85.125359 255.762709l298.537613 0.099912 0.099912-298.537614-298.537613-0.099912zM170.450366 170.537613h127.987511v-127.887598H170.450366v127.887598z"  horiz-adv-x="1024" />

    
    <glyph glyph-name="qq" unicode="&#59161;" d="M929.963 169.596c-27.463-18.763-103.963 28.047-103.963 28.047-4.396-13.203-42.914-80.857-42.914-80.857 20.906-6.606 72.93-26.667 67.672-70.977s-72.258-79.217-178.245-79.217c-63.013 0-127.466 33.011-160.072 33.011-32.607 0-96.885-30.906-160.079-33.005s-146.678 13.779-174.937 66.841 64.354 83.333 64.354 83.333c-25.778 31.979-42.909 80.89-42.909 80.89-28.87-27.912-84.087-52.445-103.979-28.053s-1.135 77.911 26.403 143.568 59.406 107.267 59.406 107.267 15.621 381.213 331.711 381.213 331.712-381.215 331.712-381.215 35.153-43.583 59.432-99.263 53.871-132.82 26.408-151.583zM512.43 14.465c185.069 0 260.749 177.688 260.749 245.905 0 28.599-4.954 56.65-14.86 84.164-69.319-56.116-151.272-84.164-245.889-84.164-94.646 0-176.583 28.048-245.9 84.164-9.896-27.514-14.85-55.565-14.85-84.164 0-68.228 75.681-245.905 260.75-245.905zM325.947 440.241c0-11.741 62.695-36.302 62.695-36.302l-16.507 31.354c20.879-19.8 83.358-56.112 140.278-56.112s140.28 56.095 140.28 56.095c-2.209-6.59-16.503-31.348-16.503-31.348s61.072 29.208 61.072 41.265-80.875 56.102-184.819 56.102-186.496-49.312-186.496-61.054zM372.16 608.579c0-28.829 10.939-82.501 57.765-82.501s57.769 49.838 57.769 82.505-15.844 82.506-57.769 82.506-57.765-53.681-57.765-82.51zM449.718 575.573c-16.509 0-24.758 10.979-24.758 33.012 0 21.992 8.249 33.002 24.758 33.002s24.747-11.010 24.747-33.002c0.010-22.025-8.239-33.012-24.747-33.012zM594.944 691.089c-41.444 0-57.77-50.089-57.77-82.506s13.88-82.505 57.77-82.505 57.776 45.255 57.776 82.505-16.332 82.506-57.776 82.506zM550.373 595.381c2.204 10.978 6.327 20.879 12.386 29.706 6.039 8.811 13.469 12.641 22.277 11.544 16.505-2.22 23.65-18.729 21.452-49.504-1.103-4.407-3.854-6.606-8.248-6.606-5.487 1.080-7.693 3.857-6.602 8.254 1.105 20.873-1.643 31.904-8.237 33.013-8.807 1.080-14.873-8.821-18.168-29.712-1.101-4.392-5.974-6.134-9.072-4.948s-6.892 3.84-5.788 8.253z"  horiz-adv-x="1024" />

    
    <glyph glyph-name="icon-test" unicode="&#59613;" d="M203.2 392c0-45.6 95.2-187.2 95.2-187.2s-40-9.6-40-8L132 399.2V644c0 27.2-21.6 48.8-47.2 48.8-26.4 0-47.2-21.6-47.2-48.8v-447.2c0-27.2 213.6-324.8 213.6-324.8H472V116L282.4 416.8s-79.2 33.6-79.2-24.8zM520 896L329.6 757.6 520 611.2l182.4 154.4L520 896zM321.6 522.4L504 384V587.2L321.6 717.6v-195.2z m618.4 170.4c-26.4 0-47.2-21.6-47.2-48.8v-244.8L765.6 196.8c0-1.6-40 8-40 8s95.2 141.6 95.2 187.2c0 58.4-79.2 24-79.2 24L552 116V-128h221.6s213.6 298.4 213.6 324.8V644c0 27.2-20.8 48.8-47.2 48.8z m-221.6 48.8L536 587.2V384l182.4 130.4V741.6z"  horiz-adv-x="1024" />

    
    <glyph glyph-name="xinlang" unicode="&#58950;" d="M470.365 60.112c-194.674 0-352.595 103.424-352.595 231.083 0 127.547 236.43 329.049 326.882 329.049 37.888 0 112.297-28.673 60.304-119.695-3.641-6.372 117.418 52.907 183.635 13.882 66.218-38.914 0-101.601 0-108.545s132.896-6.939 132.896-114.807c-0.123-127.541-156.448-230.966-351.122-230.966zM747.411 532.526c-21.962 26.396-67.015 20.255-67.015 20.255-9.443-0.227-16.725 6.601-16.725 15.699v6.484c0 9.106 7.282 17.633 16.27 19.002 0 0 53.705 13.654 94.779-23.895s23.436-106.157 23.436-106.157c-1.479-9.216-10.352-16.387-19.457-16.387h-14.907c-8.989 0-14.336 7.054-11.721 15.699 0.116 0.123 17.185 42.899-4.66 69.3zM902.49 442.982c-1.479-13.654-14.22-24.577-27.874-24.577h-10.579c-13.766 0-23.209 10.923-21.164 24.461 0 0 19.568 82.716-25.714 148.595-45.17 65.879-151.327 54.613-151.327 54.613-13.993-0.227-25.033 10.241-25.033 23.895v12.175c0 13.766 11.039 25.033 24.577 25.259 0 0 110.59 10.125 185.913-62.239 75.55-72.253 51.2-202.183 51.2-202.183zM438.052 428.303c-124.362-17.523-215.838-98.194-204.343-180.343s121.74-134.485 246.101-117.079c124.471 17.523 215.948 98.188 204.343 180.338-11.493 82.156-121.746 134.608-246.101 117.085zM456.821 153.296c-73.953-14.336-143.819 24.689-155.987 87.381-12.175 62.577 37.888 125.043 111.958 139.379 73.953 14.336 143.819-24.689 155.987-87.381 12.175-62.577-37.888-125.043-111.958-139.379zM377.41 278.112c-22.754-10.579-34.702-33.339-26.622-50.629s33.111-22.754 55.866-12.175 34.702 33.339 26.622 50.629c-8.079 17.412-33.111 22.87-55.866 12.175zM458.983 314.293c-12.513 0-22.754-10.352-22.754-23.098s10.125-23.098 22.754-23.098c12.513 0 22.754 10.352 22.754 23.098s-10.236 23.098-22.754 23.098z"  horiz-adv-x="1024" />

    
    <glyph glyph-name="dianzan-damuzhi" unicode="&#58900;" d="M267.752-53.692c0.009-0.009 0.090-0.028 0.199-0.050-0.081-0.035-0.076-0.045 0-0.045 0.056 0 0.146 0.005 0.265 0.014 0.128-0.009 0.228-0.014 0.282-0.014 0.085 0 0.091 0.010 0 0.045 0.113 0.017 0.216 0.051 0.309 0.099l-1.055-0.049zM185.602 454.782h-107.921c-21.647 0-39.164-18.096-39.164-40.395v-427.902c0-22.296 17.516-40.385 39.164-40.385h107.92c21.643 0 39.165 18.089 39.165 40.385v427.903c0.001 22.296-17.52 40.394-39.164 40.394zM951.566 310.399s35.771 8.816 35.771 80.868c0 30.185-32.647 112.6-80.611 120.652-97.902 16.44-115.13-5.247-91.297 36.281 58.775 107.63 64.191 93.718 64.191 161.52-22.324 189.157-151.048 162.074-198.034 162.074-47.007-5.289 7.222-91.063-177.069-214.752-66.104-44.374-118.953-162.667-177.708-187.734-58.754-25.085-166.491-53.804-213.478-65.276-47.007-11.491 10.473-446.009 57.48-434.518v-0.19c47.007 8.348 251.564-21.369 324.636-34.433 85.455-15.273 264.393-70.183 340.12-13.447 36.834 27.614 43.844 79.104 43.844 79.104s53.486 28.271 59.198 77.935c5.886 50.662-2.207 66.657-2.207 66.657s40.975 22.452 50.957 91.317c9.942 68.144-35.793 73.942-35.793 73.942zM913.417 257.764c-8.518-58.627-60.008-66.126-60.008-66.126s33.031-22.897 27.997-66.019c-4.863-42.27-48.028-59.37-48.028-59.37s0.341-59.816-32.583-81.249c-54.698-35.622-226.351 1.934-299.104 14.912-62.216 11.131-238.712 36.429-278.732 29.335v0.148c-39.997-9.771-87.494 319.474-47.475 329.244 40.020 9.771 125.771 18.905 175.753 40.254 50.024 21.347 161.287 175.688 217.556 213.478 156.869 105.294 133.228 194.126 173.248 198.629 39.996 0 60.56-40.996 60.56-89.831 0-60.56-36.238-95.459-70.118-193.171-21.773-62.728 36.024-58.648 119.377-72.667 40.826-6.839 61.516-29.569 61.516-55.25 0-61.347-44.692-67.697-44.692-67.697s53.188-16.546 44.733-74.62z"  horiz-adv-x="1024" />

    
    <glyph glyph-name="bag" unicode="&#58793;" d="M847.813 624.22h-105.374c-6.543 59.521-34.31 111.559-75.45 149.229-34.815 35.971-93.041 60.551-154.988 60.551-119.054 0-217.399-91.921-230.425-209.78h-105.425c-62.94 0-114.151-52.191-114.151-116.338v-457.544c0-64.122 51.209-116.338 114.151-116.338h671.662c62.94 0 114.151 52.191 114.151 116.338v457.544c0.038 64.147-51.172 116.338-114.151 116.338zM512 792.434c97.353-0.767 173.030-80.982 185.678-168.214h-371.356c12.649 87.232 96.636 168.906 185.678 168.214zM917.706 50.338c0-33.595-36.877-71-69.855-71h-671.7c-32.966 0-69.856 37.392-69.856 71v216.356c27.661-24.341 73.866-44.119 113.333-44.119h584.732c39.466 0 85.647 14.748 113.333 39.089zM917.706 382.038c-0.742-45.514-12.233-63.506-31.747-83.233s-54.064-30.892-81.586-30.892h-584.745c-27.485 0-62.601 11.945-82.19 31.721s-31.847 39.391-31.143 82.39v125.856c0 33.608 36.877 71 69.855 71h671.662c32.966 0 69.855-37.392 69.855-71zM512 513.238c-52.152 0-94.574-43.238-94.574-96.398s42.421-96.398 94.574-96.398 94.574 43.238 94.574 96.398-42.421 96.398-94.574 96.398zM512 366.234c-27.384 0-49.663 22.706-49.663 50.618s22.28 50.618 49.663 50.618 49.663-22.706 49.663-50.618-22.28-50.569-49.663-50.569z"  horiz-adv-x="1024" />

    
    <glyph glyph-name="shouji" unicode="&#58944;" d="M739.630204 889.892401H284.369796A101.630443 101.630443 0 0 1 183.105809 788.628415V-20.139807a101.630443 101.630443 0 0 1 101.263987-101.263986h455.260408A101.630443 101.630443 0 0 1 840.894191-20.139807V788.628415A101.263987 101.263987 0 0 1 739.630204 889.892401zM284.369796 839.199332h455.260408a50.815221 50.815221 0 0 0 50.693069-50.693069v-657.66623H233.798879V788.628415a50.815221 50.815221 0 0 0 50.570917 50.570917z m455.260408-910.398664H284.369796A50.815221 50.815221 0 0 0 233.798879-20.139807v100.897531h556.524394V-20.139807a50.815221 50.815221 0 0 0-50.693069-50.693069z m-171.012764 101.263987h-113.967792a25.041155 25.041155 0 1 1 0-50.08231h114.089944a25.041155 25.041155 0 1 1 0 50.08231z"  horiz-adv-x="1024" />

    
    <glyph glyph-name="zhifubao" unicode="&#59075;" d="M1864.757895 608.561404c10.778947 0 16.168421-5.389474 16.168421-14.37193l-7.185965-59.284211H1518.035088v62.877193l116.77193 3.592983v-1.796492l114.975438 3.592983v1.796491l114.975439 3.592983z m114.975438-7.185965c-1.796491 30.540351-19.761404 46.708772-52.098245 46.708772l-177.852632-7.185965v53.894736H1688.701754c-37.726316 0-53.894737-7.185965-53.894736-19.761403v-37.726316l-116.77193-5.389474v21.557895c-71.859649 5.389474-105.992982-1.796491-105.992983-19.761403v-138.329825H1634.807018v-97.010526h-152.701755v-35.929825H1634.807018v-183.242105l114.975438 10.778947v172.463158h165.277193v37.726316l-165.277193-1.796491v97.010526h192.224562v17.964912h3.592982c10.778947 1.796491 17.964912 8.982456 25.150877 25.150878l8.982456 62.877193zM1365.333333 567.242105h-61.080701v127.550877h-61.080702c-35.929825 1.796491-53.894737-5.389474-52.098246-17.964912v-109.585965h-215.578947v-37.726316h213.782456v-366.48421h113.178947V529.515789H1365.333333v37.726316zM955.733333 694.792982c-35.929825 1.796491-52.098246-5.389474-52.098245-17.964912 0-53.894737-52.098246-116.77193-154.498246-186.835088l16.168421-23.354386 77.249123 35.929825 1.796491-312.589474 113.178948-14.371929V576.224561c32.336842 37.726316 48.505263 77.249123 50.301754 118.568421h-52.098246zM1814.45614 272.617544l30.540351-34.133333 32.336842-28.74386c7.185965-7.185965 14.37193-7.185965 19.761404 0l34.133333 28.74386 28.74386 34.133333c5.389474 5.389474 5.389474 12.575439 0 17.964912l-30.540351 34.133333-32.336842 28.74386c-5.389474 7.185965-12.575439 7.185965-19.761404 0l-32.336842-28.74386-30.540351-34.133333c-7.185965-7.185965-7.185965-12.575439 0-17.964912M1174.905263 410.947368l-37.726316 44.912281-44.91228 39.522807c-7.185965 7.185965-17.964912 7.185965-25.150878 0l-44.91228-39.522807-39.522807-44.912281c-8.982456-8.982456-8.982456-16.168421 0-25.150877l84.435087-82.638596c7.185965-7.185965 17.964912-7.185965 25.150878 0l44.91228 39.522807 37.726316 43.115789c8.982456 8.982456 8.982456 16.168421 0 25.150877M1947.396491 61.062737l44.912281 7.185965 28.74386 28.743859c16.168421 23.354386 41.319298 50.301754 80.842105 82.638597 41.319298 35.929825 57.487719 44.912281 43.115789 30.540351 7.185965 7.185965 12.575439 14.37193 10.778948 21.557895 0 5.389474-5.389474 8.982456-12.575439 7.185964l-26.947368-3.592982c-183.242105-37.726316-411.396491-62.877193-688.056141-75.452632-312.589474-12.575439-544.336842 1.796491-698.835087 44.912281-48.505263 14.37193-93.417544 26.947368-136.533334 39.522807-34.133333 12.575439-66.470175 21.557895-97.010526 32.336842-16.168421 5.389474-32.336842 10.778947-46.708772 16.168421-102.4 44.912281-185.038596 66.470175-244.322807 64.673684-55.691228 0-102.4-12.575439-140.126316-37.726315-39.522807-26.947368-59.284211-62.877193-57.487719-107.789474-1.796491-50.301754 19.761404-89.824561 61.080702-116.77193 28.74386-19.761404 64.673684-32.336842 105.992982-37.726316h7.185965c-32.336842 3.592982-61.080702 14.37193-86.231579 30.540351-34.133333 23.354386-52.098246 53.894737-52.098246 93.417544 0 77.249123 43.115789 116.77193 134.736843 123.957895h12.575438l88.02807-7.185965c28.74386-8.982456 55.691228-17.964912 77.249123-28.74386 10.778947-3.592982 41.319298-19.761404 91.621053-44.91228 21.557895-10.778947 44.912281-23.354386 71.859649-35.929825 1.796491-1.796491 7.185965-3.592982 10.778947-5.389474 71.859649-35.929825 140.126316-62.877193 208.392983-84.435087 249.712281-75.452632 652.126316-88.02807 1209.038596-37.726316M404.210526 673.235088v-68.266667H177.852632v-35.929825h224.561403V482.807018l-159.887719-1.796492v-37.726315l339.536842 1.796491c-16.168421-59.284211-43.115789-114.975439-86.231579-167.073684 30.540351-10.778947 61.080702-21.557895 95.214035-32.336843 61.080702 73.65614 98.807018 150.905263 107.789474 237.136843H515.592982v84.435087h233.54386v35.929825h-233.54386v86.231579l-59.28421 1.796491c-35.929825 1.796491-52.098246-5.389474-52.098246-17.964912M208.392982 58.835088h17.964913c107.789474 7.185965 203.003509 43.115789 283.845614 107.789473 7.185965 7.185965 16.168421 14.37193 23.354386 21.557895-3.592982 1.796491-7.185965 1.796491-10.778948 5.389474-26.947368 12.575439-52.098246 25.150877-71.859649 35.929824l-7.185965-7.185965c-35.929825-34.133333-77.249123-61.080702-120.364912-82.638596-41.319298-19.761404-77.249123-28.74386-105.992982-30.540351-95.214035 0-143.719298 35.929825-143.719299 105.992983 0 48.505263 35.929825 79.045614 107.789474 95.214035-91.621053-7.185965-134.736842-46.708772-134.736842-123.957895 0-39.522807 17.964912-70.063158 52.098246-93.417544 23.354386-16.168421 52.098246-26.947368 86.231578-30.540351h-12.575438c12.575439-3.592982 23.354386-3.592982 35.929824-3.592982M2109.080702 734.315789h-8.982456l-14.37193-35.929824-14.37193 35.929824h-8.982456v-43.115789h5.389474v35.929825l14.371929-35.929825h5.389474l14.37193 35.929825v-35.929825h7.185965zM2055.185965 728.926316V734.315789h-39.522807v-5.389473h16.168421v-37.726316h8.982456V728.926316z"  horiz-adv-x="2156" />

    
    <glyph glyph-name="beibao" unicode="&#58897;" d="M900.235876-32.150433A158.376907 158.376907 0 0 0 754.722309-128h-490.886598a158.350515 158.350515 0 0 0-146.680082 98.673485c-143.407505 73.142103-150.316866 282.951258-11.670433 366.734515V463.175258a343.092784 343.092784 0 0 0 283.088495 337.756371c27.500206 127.018227 220.323629 126.680412 246.94235-0.987052A343.150845 343.150845 0 0 0 913.072825 463.175258v-123.075299c146.384495-82.574515 138.889237-301.53633-12.836949-372.250392zM105.485196 30.350515v255.245196c-78.283216-66.755299-76.536082-192.084454 0.042227-256.844536-0.005278 0.54367-0.042227 1.071505-0.042227 1.59934z m329.105155 775.563877c4.644948 0.184742 9.295175 0.353649 13.987628 0.353649h121.402062c6.497649 0 12.942515-0.216412 19.350433-0.57534-27.426309 64.005278-127.155464 64.084454-154.740123 0.221691zM870.846021 457.896907a306.14433 306.14433 0 0 1-306.14433 306.14433h-110.845361a306.14433 306.14433 0 0 1-306.14433-306.14433v-411.71134a131.958763 131.958763 0 0 1 131.958763-131.958763h459.216495a131.958763 131.958763 0 0 1 131.958763 131.958763V457.896907z m42.226804-168.210474V30.350515c0-1.942433-0.079175-3.858474-0.147794-5.806185 83.809649 64.559505 85.804866 198.275959 0.147794 265.142103z m-211.134021 41.530062h-369.484536a79.175258 79.175258 0 0 0-79.175258 79.175258V542.350515a79.175258 79.175258 0 0 0 79.175258 79.175258h369.484536a79.175258 79.175258 0 0 0 79.175258-79.175258v-131.958762a79.175258 79.175258 0 0 0-79.175258-79.175258z m36.948454 195.298969a52.783505 52.783505 0 0 1-52.783505 52.783505h-337.814433a52.783505 52.783505 0 0 1-52.783506-52.783505v-100.28866a52.783505 52.783505 0 0 1 52.783506-52.783505h337.814433a52.783505 52.783505 0 0 1 52.783505 52.783505V526.515464z"  horiz-adv-x="1024" />

    
    <glyph glyph-name="erweima-pc-off" unicode="&#58629;" d="M145.713 750.287h79.628v-79.628h-79.628v79.628zM368.671 893.616h-366.287v-366.287h143.329v-63.702h79.628v63.702h143.329v79.629h63.702v63.702h-63.702v222.957zM289.042 606.958h-207.031v207.031h207.031v-207.031zM145.713 97.342h79.628v-79.628h-79.628v79.628zM798.658 750.287h79.628v-79.628h-79.628v79.628zM512 390.421v-86.048h79.628v79.628h63.702v79.628h-63.702v63.702h-79.628v-64.106zM512 99.212v-81.499h79.628v143.33h63.702v79.628h-143.329v-68.656zM591.628 17.713h63.702v-63.702h-63.702v63.702zM432.372-45.989v-79.628h159.254v79.628h-75.261zM734.957 161.043h-79.628v-143.33h143.329v79.629h-63.702zM798.658-125.616h222.958v79.628h-143.329v63.702h-79.629v-64.106zM1021.616 384v79.628h-143.329v-79.628h74.894zM941.989 97.342h79.628v-79.628h-79.628v79.628zM432.372 606.958h79.628v-79.628h-79.628v79.628zM798.658 463.628v63.702h222.958v366.287h-366.287v-79.628h-143.329v-63.702h143.329v-79.628h-63.702v-63.702h63.702v-79.628h79.628v-63.702h63.702zM734.957 813.989h207.031v-207.031h-207.031v207.031zM734.957 304.372h63.702v-63.702h-63.702v63.702zM878.287 161.043h-79.629v-63.702h143.33v143.329h79.628v63.702h-143.329v-59.556zM432.372 750.287h79.628v-79.628h-79.628v79.628zM225.341 384h63.702v-79.628h-63.702v79.628zM432.372 463.628h-143.33v-79.628h79.629v-79.628h63.702v86.048zM368.671 17.713v143.33h63.702v79.628h-286.659v143.329h-143.329v-79.628h79.628v-63.702h-79.628v-366.287h366.287v79.628h63.702v63.702h-63.702zM289.042-45.989h-207.031v207.033h207.031v-207.033zM432.372 304.372h79.628v-63.702h-79.628v63.702zM655.329 384h79.628v-79.628h-79.628v79.628zM798.658 384h79.628v-79.628h-79.628v79.628z"  horiz-adv-x="1024" />

    
    <glyph glyph-name="arrow-up" unicode="&#58887;" d="M477.211 705.804v-769.359h69.578v769.359l159.419-142.696v92.751l-195.023 175.695-193.392-175.695v-92.751z"  horiz-adv-x="1024" />

    
    <glyph glyph-name="xinxi" unicode="&#59005;" d="M529.76-96c-0.004 0-0.008 0-0.013 0-11.866 0-22.372 5.827-28.811 14.775l-72.168 101.049c-230.832 40.656-396.768 214.224-396.768 417.504 0 235.296 223.296 426.672 497.76 426.672 274.512 0 497.76-191.376 497.76-426.672 0-203.328-165.888-376.848-396.672-417.456l-72.144-100.992c-6.532-9.054-17.051-14.88-28.932-14.88-0.004 0-0.008 0-0.012 0zM529.76 792.912c-235.248 0-426.672-159.504-426.672-355.584 0-172.176 147.744-319.248 351.216-349.632 9.504-1.44 18.096-6.672 23.664-14.496l51.84-72.48 51.792 72.48c5.887 8.237 15.057 13.802 25.559 14.776 201.625 30.104 349.273 177.127 349.273 349.352 0 196.080-191.376 355.584-426.672 355.584zM280.928 366.192c-39.277 0.027-71.108 31.86-71.136 71.134 1.76 37.914 32.924 67.986 71.112 67.986 38.188 0 69.352-30.071 71.107-67.825 0.006-39.374-31.867-71.245-71.082-71.245zM281.216 437.328h-0.336l0.144-35.52 0.192 35.52zM778.688 366.24c-39.239 0.054-71.033 31.849-71.088 71.083 0 39.221 31.872 71.141 71.088 71.141 37.912-1.76 67.983-32.924 67.983-71.112 0-38.188-30.071-69.352-67.825-71.107zM778.976 437.328h-0.288l0.144-35.52 0.144 35.52zM529.856 366.24c-39.243 0.027-71.054 31.805-71.136 71.032 0 39.224 31.872 71.144 71.088 71.144 37.913-1.76 67.983-32.924 67.983-71.112 0-38.188-30.071-69.352-67.825-71.107zM530.096 437.328h-0.336l0.192-35.52 0.144 35.52z"  horiz-adv-x="1075" />

    
    <glyph glyph-name="weixin1" unicode="&#58914;" d="M727.771429 544.914286C700.342857 691.2 548.571429 804.571429 365.714286 804.571429 164.571429 804.571429 0 667.428571 0 499.2 0 398.628571 56.685714 310.857143 144.457143 256l1.828571-1.828571-34.742857-109.714286 131.657143 67.657143 5.485714-1.828572c45.714286-12.8 93.257143-18.285714 140.8-14.628571-7.314286 23.771429-10.971429 47.542857-10.971428 73.142857 0 153.6 149.942857 279.771429 332.8 279.771429 5.485714-3.657143 10.971429-3.657143 16.457143-3.657143zM493.714286 652.8c29.257143 0 51.2-21.942857 51.2-49.371429 0-27.428571-23.771429-49.371429-51.2-49.371428-29.257143 0-51.2 21.942857-51.2 49.371428 0 27.428571 21.942857 49.371429 51.2 49.371429zM186.514286 603.428571c0 27.428571 23.771429 49.371429 51.2 49.371429 29.257143 0 51.2-21.942857 51.2-49.371429s-23.771429-49.371429-51.2-49.371428-51.2 21.942857-51.2 49.371428zM405.942857 265.142857c0-142.628571 138.971429-257.828571 309.028572-257.828571 34.742857 0 69.485714 5.485714 102.4 14.628571l111.542857-56.685714-29.257143 93.257143 3.657143 1.828571c73.142857 47.542857 120.685714 120.685714 120.685714 204.8 0 142.628571-138.971429 257.828571-309.028571 257.828572-170.057143 0-309.028571-115.2-309.028572-257.828572z m373.028572 87.771429c0 23.771429 20.114286 42.057143 43.885714 42.057143 23.771429 0 43.885714-18.285714 43.885714-42.057143 0-23.771429-20.114286-42.057143-43.885714-42.057143-23.771429 0-43.885714 20.114286-43.885714 42.057143z m-215.771429 0c0 23.771429 20.114286 42.057143 43.885714 42.057143 23.771429 0 43.885714-18.285714 43.885715-42.057143 0-23.771429-20.114286-42.057143-43.885715-42.057143-23.771429 0-43.885714 20.114286-43.885714 42.057143z"  horiz-adv-x="1024" />

    
    <glyph glyph-name="qiapian" unicode="&#58996;" d="M797.527 383.099H638.428v-53.315h159.099V383.1z m81.429 346.521H136.525c-43.93 0-79.545-35.799-79.545-79.964v-533.115c0-44.16 35.615-79.964 79.545-79.964h742.43c43.93 0 79.545 35.804 79.545 79.964V649.656c0 44.165-35.61 79.964-79.544 79.964z m26.51-559.77c0-44.164-35.609-79.958-79.538-79.958h-636.37c-43.93 0-79.545 35.799-79.545 79.959V489.728h795.454v-319.872z m0 373.182H110.014v53.31c0 44.165 35.61 79.964 79.545 79.964h636.365c43.934 0 79.544-35.8 79.544-79.964v-53.31zM534.257 383.1H163.042v-53.315h371.216V383.1zM375.164 276.48H163.04v-53.31h212.122v53.31z"  horiz-adv-x="1024" />

    
    <glyph glyph-name="icon-up" unicode="&#58883;" d="M153.26899999999995 544.5479999999999l362.02400000000006-362.0239999999999 360.9269999999999 360.9270000000001z"  horiz-adv-x="1024" />

    
    <glyph glyph-name="logo" unicode="&#58960;" d="M1029.519992 265.661818a1933.306466 1933.306466 0 0 1-262.640909 274.762797 120.680131 120.680131 0 0 1-77.849459 32.325035 111.790746 111.790746 0 0 1-72.461954-30.439408l-18.586895-16.701268c-53.875058-45.7938-219.540862-199.607091-223.312116-203.378345A64.65007 64.65007 0 0 0 327.527983 303.374359a80.812587 80.812587 0 0 0-51.450681 24.513152 1319.938928 1319.938928 0 0 0-134.687646 131.724517C100.713987 505.405828 67.042076 545.812121 67.042076 545.812121s-7.542508-15.623767-11.583137-26.937529a17.509394 17.509394 0 0 1 0-17.240019 1904.213934 1904.213934 0 0 1 262.371533-275.301547A115.292625 115.292625 0 0 1 396.757433 195.624243a111.790746 111.790746 0 0 1 72.461953 30.439407l18.586895 16.701268c53.875058 45.7938 154.082667 138.728275 201.762093 183.444574l21.550024 19.933771A64.65007 64.65007 0 0 0 758.528449 464.999534a86.200093 86.200093 0 0 0 51.450681-24.513152c29.631282-26.937529 78.118834-70.845702 134.687645-131.724517 41.75317-44.716298 73.80883-86.200093 74.347581-86.200093m0 0s7.811883 16.162517 11.852512 26.937529a16.162517 16.162517 0 0 1 0 16.431893M1048.376262 360.481921a35.288163 35.288163 0 0 0 4.57938-24.782527c-2.155002-14.546266-5.387506-30.708783-5.387505-30.708783a1629.720513 1629.720513 0 0 1-300.084075 319.748471 136.842648 136.842648 0 0 1-183.713949-7.273133c-20.203147-16.431893-171.05331-150.850163-245.131515-226.00587a23.43565 23.43565 0 0 0-34.210662-4.040629 724.080783 724.080783 0 0 0-67.613198 64.111319c37.712541 43.100047 229.777124 223.312117 276.379049 257.522779a185.868951 185.868951 0 0 0 213.614606 8.081259c56.299436-30.708783 203.378345-154.890793 341.567869-356.652886zM169.404687 526.147725c93.742601 91.587599 195.566462 184.79145 254.290275 230.854625 99.399483 77.849459 215.500233 85.391967 329.984732-6.465007a1356.573967 1356.573967 0 0 0 134.687645-125.259511A1871.350149 1871.350149 0 0 0 1054.841269 411.124476a253.751524 253.751524 0 0 1-5.656881 45.255049 80.812587 80.812587 0 0 1-5.926256 17.778769 1017.699851 1017.699851 0 0 1-118.794504 173.208312C797.049116 797.139268 716.505903 842.124942 665.055223 869.062471 596.903274 906.775012 462.215628 917.280648 337.494869 815.187413a3269.138536 3269.138536 0 0 1-247.825268-226.275245 814.860256 814.860256 0 0 1 59.262564-64.919445 13.73814 13.73814 0 0 1 20.472522 2.155002z m210.112727-475.447389a185.868951 185.868951 0 0 1 213.614606 8.081259c46.601925 34.480037 238.666508 215.500233 276.379049 257.522778a724.619534 724.619534 0 0 1-67.613198 64.111319 23.43565 23.43565 0 0 1-34.210662-4.040629c-74.078205-75.155706-224.928368-209.573977-245.131515-226.005869a136.842648 136.842648 0 0 0-183.983324-7.273133A1630.798014 1630.798014 0 0 0 38.75767 463.113907s-3.232503-16.162517-5.387505-30.708783a35.288163 35.288163 0 0 1 4.57938-24.782527c138.189524-201.762093 285.268434-325.944103 341.567869-356.922261z m537.134331 191.525832c-93.742601-91.587599-195.566462-184.79145-254.290275-230.854625-99.399483-77.849459-215.500233-85.391967-329.984732 6.465007a1356.304592 1356.304592 0 0 0-134.687646 125.259511A1869.733897 1869.733897 0 0 0 31.215162 357.249417a206.072098 206.072098 0 0 1 5.656881-45.255049 84.045091 84.045091 0 0 1 5.926257-17.778769 1017.969226 1017.969226 0 0 1 118.794503-172.938937c127.414513-150.311413 207.957725-196.105212 259.677781-223.581492C489.153158-138.670494 623.840803-149.17613 748.561563-46.81352a3275.872918 3275.872918 0 0 1 248.094643 225.736494 819.170261 819.170261 0 0 1-59.262564 64.919446 13.73814 13.73814 0 0 1-20.741897-1.885627z"  horiz-adv-x="1054" />

    
    <glyph glyph-name="shoucang11" unicode="&#58907;" d="M752-43.200000000000045c-9.6 0-20.8 3.2-30.4 8l-208 104L304-35.200000000000045c-20.8-11.2-48-9.6-67.2 4.8-19.2 14.4-30.4 40-25.6 64l43.2 224-164.8 153.6c-17.6 17.6-24 44.8-17.6 67.2 8 24 27.2 41.6 52.8 44.8l228.8 41.6 102.4 208c11.2 22.4 33.6 36.8 57.6 36.8s48-14.4 57.6-36.8l102.4-208 228.8-40c24-3.2 44.8-20.8 51.2-44.8 8-24 1.6-49.6-16-67.2l-164.8-155.2 41.6-224c4.8-25.6-6.4-49.6-25.6-64-9.6-8-22.4-12.8-36.8-12.8z"  horiz-adv-x="1024" />

    
    <glyph glyph-name="shoucang" unicode="&#59018;" d="M302.08 51.2l171.52 69.632 38.4 15.36 38.4-15.36L721.92 51.2l-5.12 189.44-1.024 37.376 23.552 29.184 110.08 137.216-177.152 53.76-34.304 10.24-20.48 29.184L512 690.688 406.528 538.112l-20.48-29.184-34.304-10.24-177.152-53.76 110.08-137.216 23.552-29.184-1.024-37.888-5.12-189.44m526.336-153.6L512 25.6l-316.416-128 9.216 346.112L0 498.688l322.048 97.792L512 870.4l189.952-273.92L1024 498.688l-204.8-254.976 9.216-346.112z"  horiz-adv-x="1024" />

    
    <glyph glyph-name="gouwuche" unicode="&#58626;" d="M892.326912 677.935104c17.024 0 29.943808-2.248704 39.371776-6.700032 9.339904-4.473856 16.062464-9.842688 20.076544-16.54272 4.017152-6.700032 5.807104-13.39904 5.369856-21.016576-0.437248-7.595008-1.352704-13.857792-3.098624-19.20512l-11.655168-33.08544-19.20512-54.974464-21.475328-59.449344c-6.677504-19.663872-12.04736-35.311616-15.627264-46.485504-8.075264-23.678976-17.896448-40.22272-29.94176-49.606656-12.090368-9.38496-26.84416-13.857792-44.260352-13.857792l-30.860288 0-58.969088 0-76.864512 0L560.684032 357.01145599999995 335.894528 357.01145599999995l13.836288-80.44544 456.344576 0c29.070336 0 43.824128-12.068864 43.824128-36.665344 0-12.04736-3.142656-22.347776-8.99072-30.83776-5.325824-8.487936-16.93696-12.96384-33.958912-12.96384l-43.342848 0-84.023296 0L575.0016 196.09907199999998 469.065728 196.09907199999998l-86.728704 0-50.0224 0c-12.091392 0-22.347776 2.685952-30.42304 8.05376-8.031232 5.368832-14.753792 12.526592-20.1216 21.016576-5.80608 8.489984-9.821184 17.87392-13.400064 28.152832-3.098624 10.278912-5.805056 19.663872-7.595008 28.611584l-4.932608 25.905152-10.258432 51.418112-12.96384 68.834304-14.316544 76.428288L178.977792 705.650688l-67.961856 0c-8.90368 0-16.497664 2.226176-22.347776 6.700032-6.198272 4.473856-11.173888 9.821184-15.188992 16.084992-3.579904 6.262784-6.678528 12.96384-8.031232 20.122624-1.308672 7.136256-2.226176 13.857792-2.226176 19.662848 0 12.069888 4.016128 21.890048 12.091392 29.50656 8.467456 7.595008 19.20512 11.609088 33.041408 11.609088l20.1216 0 18.332672 0 22.347776 0 30.816256 0c12.090368 0 21.910528-1.788928 29.068288-5.367808 7.158784-3.579904 12.96384-8.031232 17.461248-13.400064 4.015104-5.367808 7.113728-11.173888 8.90368-16.978944l4.452352-15.21152c1.396736-4.91008 2.270208-11.609088 3.579904-20.099072l3.579904-26.386432 5.41184-33.957888L892.326912 677.935104zM739.90656 170.191872c11.610112 0 22.785024-2.246656 33.08544-6.263808 10.73664-4.015104 19.642368-9.84064 27.281408-17.436672 7.593984-7.595008 13.836288-16.084992 18.28864-26.36288 4.49536-10.279936 6.720512-21.016576 6.720512-32.191488s-2.226176-21.890048-6.720512-32.169984c-4.453376-10.277888-10.694656-18.767872-18.28864-26.384384-7.63904-7.596032-16.543744-13.401088-27.281408-17.874944-10.300416-4.473856-21.475328-6.700032-33.08544-6.700032-11.173888 0-22.347776 2.226176-32.606208 6.700032-10.257408 4.473856-19.249152 10.278912-26.406912 17.874944-7.596032 7.616512-13.838336 16.106496-18.28864 26.384384-4.496384 10.279936-6.72256 20.996096-6.72256 32.169984s2.2272 21.910528 6.72256 32.191488c4.451328 10.277888 10.692608 18.767872 18.28864 26.36288 7.15776 7.596032 16.149504 13.421568 26.406912 17.436672C717.558784 167.94521599999996 728.732672 170.191872 739.90656 170.191872zM363.131904 171.98080000000004c11.609088 0 22.347776-2.246656 32.648192-6.262784 10.258432-4.036608 19.20512-9.842688 27.236352-17.436672 7.595008-7.595008 13.88032-16.084992 17.896448-26.363904 4.451328-10.278912 6.721536-21.016576 6.721536-32.191488s-2.270208-21.889024-6.721536-32.16896c-4.016128-10.279936-10.302464-18.7904-17.896448-26.385408-8.031232-7.596032-16.978944-13.400064-27.236352-17.87392-10.300416-4.473856-21.039104-6.700032-32.648192-6.700032-12.048384 0-23.222272 2.226176-33.086464 6.700032-9.821184 4.473856-18.768896 10.277888-26.800128 17.87392-7.595008 7.595008-13.88032 16.105472-17.896448 26.385408-4.451328 10.279936-6.720512 20.995072-6.720512 32.16896s2.269184 21.911552 6.720512 32.191488c4.016128 10.278912 10.302464 18.768896 17.896448 26.363904 8.031232 7.593984 16.978944 13.400064 26.800128 17.436672C339.909632 169.73414400000001 351.08352 171.98080000000004 363.131904 171.98080000000004z"  horiz-adv-x="1024" />

    
    <glyph glyph-name="sanx-up" unicode="&#58627;" d="M377.4780684453485 106.8888416290281l279.6549224853515 279.65492248535156-278.8075160980225 278.80751609802246z"  horiz-adv-x="1024" />

    


  </font>
</defs>
</svg>
